<mxfile host="65bd71144e">
    <diagram id="1cif8wCF9ODK-YRLHRi3" name="Page-1">
        <mxGraphModel dx="1587" dy="917" grid="0" gridSize="10" guides="1" tooltips="1" connect="1" arrows="1" fold="1" page="1" pageScale="1" pageWidth="10000000" pageHeight="10000000" math="0" shadow="0">
            <root>
                <mxCell id="0"/>
                <mxCell id="1" parent="0"/>
                <mxCell id="31" style="edgeStyle=none;html=1;exitX=0.5;exitY=1;exitDx=0;exitDy=0;" parent="1" source="2" edge="1">
                    <mxGeometry relative="1" as="geometry">
                        <mxPoint x="689" y="792" as="targetPoint"/>
                    </mxGeometry>
                </mxCell>
                <mxCell id="2" value="被观察者" style="rounded=1;whiteSpace=wrap;html=1;" parent="1" vertex="1">
                    <mxGeometry x="629" y="622" width="120" height="60" as="geometry"/>
                </mxCell>
                <mxCell id="3" value="传统的观察者模式" style="text;html=1;strokeColor=none;fillColor=none;align=center;verticalAlign=middle;whiteSpace=wrap;rounded=0;fontSize=20;" parent="1" vertex="1">
                    <mxGeometry x="651" y="267" width="243" height="51" as="geometry"/>
                </mxCell>
                <mxCell id="4" value="观察者" style="rounded=1;whiteSpace=wrap;html=1;" parent="1" vertex="1">
                    <mxGeometry x="629" y="385" width="120" height="60" as="geometry"/>
                </mxCell>
                <mxCell id="9" style="edgeStyle=none;html=1;exitX=1;exitY=0.5;exitDx=0;exitDy=0;" parent="1" source="5" target="8" edge="1">
                    <mxGeometry relative="1" as="geometry"/>
                </mxCell>
                <mxCell id="5" value="事件" style="rounded=1;whiteSpace=wrap;html=1;" parent="1" vertex="1">
                    <mxGeometry x="1049" y="434" width="120" height="60" as="geometry"/>
                </mxCell>
                <mxCell id="6" value="Spring中的观察者模式" style="text;html=1;strokeColor=none;fillColor=none;align=center;verticalAlign=middle;whiteSpace=wrap;rounded=0;fontSize=20;" parent="1" vertex="1">
                    <mxGeometry x="1097" y="270" width="241" height="33" as="geometry"/>
                </mxCell>
                <mxCell id="11" value="" style="edgeStyle=none;html=1;" parent="1" source="7" target="10" edge="1">
                    <mxGeometry relative="1" as="geometry"/>
                </mxCell>
                <mxCell id="7" value="监听器" style="rounded=1;whiteSpace=wrap;html=1;" parent="1" vertex="1">
                    <mxGeometry x="1049" y="342" width="120" height="60" as="geometry"/>
                </mxCell>
                <mxCell id="8" value="被观察者具体要执行的动作" style="rounded=1;whiteSpace=wrap;html=1;" parent="1" vertex="1">
                    <mxGeometry x="1209" y="434" width="120" height="60" as="geometry"/>
                </mxCell>
                <mxCell id="10" value="观察者，可能存在多个，接受不同的事件来做不同的处理工作" style="whiteSpace=wrap;html=1;rounded=1;" parent="1" vertex="1">
                    <mxGeometry x="1209" y="342" width="120" height="60" as="geometry"/>
                </mxCell>
                <mxCell id="12" value="" style="edgeStyle=none;html=1;" parent="1" source="13" target="14" edge="1">
                    <mxGeometry relative="1" as="geometry"/>
                </mxCell>
                <mxCell id="13" value="多播器" style="rounded=1;whiteSpace=wrap;html=1;" parent="1" vertex="1">
                    <mxGeometry x="1049" y="682" width="120" height="60" as="geometry"/>
                </mxCell>
                <mxCell id="14" value="把被观察者遍历观察者通知消息的操作拿出来，委托给一个多播器进行消息通知，或者说通知观察者，进行不同的操作" style="whiteSpace=wrap;html=1;rounded=1;" parent="1" vertex="1">
                    <mxGeometry x="1209" y="682" width="240" height="60" as="geometry"/>
                </mxCell>
                <mxCell id="15" value="" style="edgeStyle=none;html=1;" parent="1" source="16" target="17" edge="1">
                    <mxGeometry relative="1" as="geometry"/>
                </mxCell>
                <mxCell id="16" value="事件源" style="rounded=1;whiteSpace=wrap;html=1;" parent="1" vertex="1">
                    <mxGeometry x="1049" y="587" width="120" height="60" as="geometry"/>
                </mxCell>
                <mxCell id="17" value="谁来调用或者执行发布具体的事件" style="whiteSpace=wrap;html=1;rounded=1;" parent="1" vertex="1">
                    <mxGeometry x="1209" y="587" width="120" height="60" as="geometry"/>
                </mxCell>
                <mxCell id="20" value="" style="edgeStyle=none;html=1;" parent="1" source="18" target="19" edge="1">
                    <mxGeometry relative="1" as="geometry"/>
                </mxCell>
                <mxCell id="18" value="" style="shape=curlyBracket;whiteSpace=wrap;html=1;rounded=1;flipH=1;" parent="1" vertex="1">
                    <mxGeometry x="1449" y="310" width="20" height="444" as="geometry"/>
                </mxCell>
                <mxCell id="19" value="这一套就是spring的事件驱动，其实就是解耦了的观察者模式，为了符合单一职责原则" style="rounded=1;whiteSpace=wrap;html=1;" parent="1" vertex="1">
                    <mxGeometry x="1499" y="497" width="260" height="80" as="geometry"/>
                </mxCell>
                <mxCell id="25" value="" style="shape=curlyBracket;whiteSpace=wrap;html=1;rounded=1;" parent="1" vertex="1">
                    <mxGeometry x="749" y="355" width="20" height="120" as="geometry"/>
                </mxCell>
                <mxCell id="27" value="观察者的添加，删除，通知等方法" style="text;html=1;align=center;verticalAlign=middle;resizable=0;points=[];autosize=1;strokeColor=none;fontSize=17;" parent="1" vertex="1">
                    <mxGeometry x="762" y="647" width="265" height="24" as="geometry"/>
                </mxCell>
                <mxCell id="28" value="" style="shape=curlyBracket;whiteSpace=wrap;html=1;rounded=1;" parent="1" vertex="1">
                    <mxGeometry x="749" y="602" width="20" height="120" as="geometry"/>
                </mxCell>
                <mxCell id="29" value="自身的行为" style="text;html=1;align=center;verticalAlign=middle;resizable=0;points=[];autosize=1;strokeColor=none;fontSize=17;" parent="1" vertex="1">
                    <mxGeometry x="765" y="605" width="95" height="24" as="geometry"/>
                </mxCell>
                <mxCell id="30" value="遍历相关的观察者，进行通知" style="text;html=1;align=center;verticalAlign=middle;resizable=0;points=[];autosize=1;strokeColor=none;fontSize=17;" parent="1" vertex="1">
                    <mxGeometry x="762" y="690" width="231" height="24" as="geometry"/>
                </mxCell>
                <mxCell id="32" value="这里引出一个问题，一个类负责这么多任务，合理吗？&lt;br&gt;显然不合理，于是spring对它进行了拆分，就形成了spring的事件驱动" style="text;html=1;align=center;verticalAlign=middle;resizable=0;points=[];autosize=1;strokeColor=none;fontStyle=1;fontSize=17;" parent="1" vertex="1">
                    <mxGeometry x="429" y="792" width="540" height="50" as="geometry"/>
                </mxCell>
                <mxCell id="33" value="根据被观察者动作，&lt;br&gt;执行具体的动作" style="text;html=1;align=center;verticalAlign=middle;resizable=0;points=[];autosize=1;strokeColor=none;fontSize=17;" parent="1" vertex="1">
                    <mxGeometry x="769" y="390" width="163" height="44" as="geometry"/>
                </mxCell>
                <mxCell id="35" value="&lt;b&gt;&lt;font style=&quot;font-size: 22px&quot;&gt;逻辑执行过程:&lt;/font&gt;&lt;/b&gt;&lt;br&gt;1.事件源发布事件&lt;br&gt;2.当事件发布之后，调用多播器的方法来进行事件广播操作，由多播器去触发具体的监听器去执行操作&lt;br&gt;3.当监听器接收到具体的事件之后，可以验证匹配是否能处理当前事件，如果可以，就处理，不行，就什么也不做" style="shape=note;size=20;whiteSpace=wrap;html=1;fontSize=17;align=left;verticalAlign=top;" parent="1" vertex="1">
                    <mxGeometry x="603" y="920" width="772" height="124" as="geometry"/>
                </mxCell>
                <mxCell id="36" value="&lt;b&gt;&lt;font style=&quot;font-size: 22px&quot;&gt;实际代码处理：&lt;/font&gt;&lt;/b&gt;&lt;br&gt;1.提前准备好多个事件&lt;br&gt;2.初始化多播器，（创建多播器，这个多播器中应该有监听器集合）&lt;br&gt;3.准备好一系列的监听器&lt;br&gt;4.向多播器中注册已有的监听器&lt;br&gt;5.准备事件发布，来通知多播器循环调用监听器进行相关的逻辑处理操作" style="shape=note;size=20;whiteSpace=wrap;html=1;fontSize=17;verticalAlign=top;align=left;" parent="1" vertex="1">
                    <mxGeometry x="601" y="1079" width="776" height="139" as="geometry"/>
                </mxCell>
            </root>
        </mxGraphModel>
    </diagram>
</mxfile>